<mxfile host="65bd71144e">
    <diagram id="8tLPDNWlVIPC6RaRik7p" name="Page-1">
        <mxGraphModel dx="480" dy="371" grid="0" gridSize="10" guides="1" tooltips="1" connect="1" arrows="1" fold="1" page="1" pageScale="1" pageWidth="827" pageHeight="1169" background="#ffffff" math="0" shadow="0">
            <root>
                <mxCell id="0"/>
                <mxCell id="1" parent="0"/>
                <mxCell id="35" value="" style="edgeStyle=orthogonalEdgeStyle;html=1;strokeColor=#000033;fontSize=11;fontColor=#000033;entryX=-0.003;entryY=0.169;entryDx=0;entryDy=0;entryPerimeter=0;startArrow=classic;startFill=1;curved=1;" edge="1" parent="1" source="31" target="16">
                    <mxGeometry relative="1" as="geometry"/>
                </mxCell>
                <mxCell id="31" value="&lt;font style=&quot;font-size: 13px;&quot; color=&quot;#000033&quot;&gt;&lt;br&gt;&lt;/font&gt;" style="text;whiteSpace=wrap;html=1;strokeColor=#000033;align=center;verticalAlign=middle;fontColor=#001933;fillColor=#FFFFFF;rounded=1;" vertex="1" parent="1">
                    <mxGeometry x="330" y="450" width="59" height="66" as="geometry"/>
                </mxCell>
                <mxCell id="26" value="&lt;font face=&quot;DM Sans, sans-serif&quot;&gt;&lt;font style=&quot;&quot; color=&quot;#000033&quot;&gt;&lt;span style=&quot;font-size: 18.6667px;&quot;&gt;Compute Plane&lt;/span&gt;&lt;br&gt;&lt;font style=&quot;font-size: 11px;&quot;&gt;(Customer VNET - Databricks managed)&lt;/font&gt;&lt;/font&gt;&lt;br&gt;&lt;/font&gt;" style="text;whiteSpace=wrap;html=1;strokeColor=#330000;fillColor=#FFFFFF;fillStyle=solid;align=center;verticalAlign=bottom;strokeWidth=3;rounded=1;" vertex="1" parent="1">
                    <mxGeometry x="570" y="850" width="180" height="160" as="geometry"/>
                </mxCell>
                <mxCell id="49" style="edgeStyle=orthogonalEdgeStyle;curved=1;html=1;exitX=0;exitY=0.25;exitDx=0;exitDy=0;entryX=0.5;entryY=1;entryDx=0;entryDy=0;entryPerimeter=0;strokeColor=#000033;fontSize=11;fontColor=#FF3333;startArrow=none;startFill=0;" edge="1" parent="1" source="29" target="44">
                    <mxGeometry relative="1" as="geometry"/>
                </mxCell>
                <mxCell id="58" style="edgeStyle=orthogonalEdgeStyle;curved=1;html=1;exitX=0.5;exitY=0;exitDx=0;exitDy=0;entryX=0.99;entryY=0.5;entryDx=0;entryDy=0;entryPerimeter=0;strokeColor=#000033;fontSize=11;fontColor=#FF3333;startArrow=none;startFill=0;" edge="1" parent="1" source="73" target="46">
                    <mxGeometry relative="1" as="geometry"/>
                </mxCell>
                <mxCell id="29" value="&lt;font style=&quot;font-size: 13px;&quot; color=&quot;#000033&quot;&gt;container subnet&lt;br&gt;&lt;/font&gt;" style="text;whiteSpace=wrap;html=1;strokeColor=#000033;align=center;verticalAlign=bottom;fontColor=#001933;fillColor=#FFFFFF;dashed=1;rounded=1;" vertex="1" parent="1">
                    <mxGeometry x="590" y="860" width="130" height="90" as="geometry"/>
                </mxCell>
                <mxCell id="3" value="&lt;meta charset=&quot;utf-8&quot;&gt;&lt;b id=&quot;docs-internal-guid-d76d5099-7fff-30b3-e31c-39ad6ec91f82&quot; style=&quot;font-weight:normal;&quot;&gt;&lt;p style=&quot;line-height: 1.2; margin-top: 0pt; margin-bottom: 0pt;&quot; dir=&quot;ltr&quot;&gt;&lt;span style=&quot;font-size: 14pt; font-family: &amp;quot;DM Sans&amp;quot;, sans-serif; color: rgb(27, 81, 98); background-color: transparent; font-weight: 500; font-style: normal; font-variant: normal; text-decoration: none; vertical-align: baseline;&quot;&gt;Customer on premises&lt;/span&gt;&lt;/p&gt;&lt;/b&gt;&lt;br class=&quot;Apple-interchange-newline&quot;&gt;" style="text;whiteSpace=wrap;html=1;strokeColor=#000033;fillColor=#FFFFFF;fillStyle=solid;align=center;strokeWidth=3;rounded=1;" vertex="1" parent="1">
                    <mxGeometry x="70" y="450" width="220" height="320" as="geometry"/>
                </mxCell>
                <mxCell id="38" style="edgeStyle=orthogonalEdgeStyle;curved=1;html=1;exitX=1;exitY=0.5;exitDx=0;exitDy=0;entryX=0;entryY=0.5;entryDx=0;entryDy=0;entryPerimeter=0;strokeColor=#000033;fontSize=11;fontColor=#FF3333;startArrow=none;startFill=0;" edge="1" parent="1" source="8" target="36">
                    <mxGeometry relative="1" as="geometry"/>
                </mxCell>
                <mxCell id="8" value="&lt;font style=&quot;font-size: 13px;&quot; color=&quot;#000033&quot; face=&quot;DM Sans, sans-serif&quot;&gt;BI Tools&lt;/font&gt;" style="text;whiteSpace=wrap;html=1;strokeColor=#000033;align=center;verticalAlign=middle;rounded=1;" vertex="1" parent="1">
                    <mxGeometry x="180" y="630" width="90" height="40" as="geometry"/>
                </mxCell>
                <mxCell id="11" value="&lt;font color=&quot;#001933&quot;&gt;User&lt;/font&gt;" style="verticalLabelPosition=bottom;html=1;verticalAlign=top;align=center;strokeColor=none;fillColor=#00BEF2;shape=mxgraph.azure.user;fillStyle=solid;" vertex="1" parent="1">
                    <mxGeometry x="90" y="585" width="47.5" height="85" as="geometry"/>
                </mxCell>
                <mxCell id="33" style="edgeStyle=orthogonalEdgeStyle;curved=1;html=1;exitX=1;exitY=0.25;exitDx=0;exitDy=0;entryX=0;entryY=0.6;entryDx=0;entryDy=0;entryPerimeter=0;fontSize=11;fontColor=#000033;strokeColor=#000033;startArrow=classic;startFill=1;" edge="1" parent="1" source="14" target="30">
                    <mxGeometry relative="1" as="geometry"/>
                </mxCell>
                <mxCell id="40" style="edgeStyle=orthogonalEdgeStyle;curved=1;html=1;exitX=1;exitY=0.5;exitDx=0;exitDy=0;entryX=0;entryY=0.5;entryDx=0;entryDy=0;entryPerimeter=0;strokeColor=#000033;fontSize=11;fontColor=#FF3333;startArrow=none;startFill=0;" edge="1" parent="1" source="14" target="36">
                    <mxGeometry relative="1" as="geometry"/>
                </mxCell>
                <mxCell id="14" value="&lt;font style=&quot;font-size: 13px;&quot; color=&quot;#000033&quot;&gt;Browser&lt;/font&gt;" style="text;whiteSpace=wrap;html=1;strokeColor=#000033;align=center;verticalAlign=middle;fontColor=#001933;rounded=1;" vertex="1" parent="1">
                    <mxGeometry x="180" y="580" width="90" height="40" as="geometry"/>
                </mxCell>
                <mxCell id="39" style="edgeStyle=orthogonalEdgeStyle;curved=1;html=1;exitX=1;exitY=0.5;exitDx=0;exitDy=0;entryX=0;entryY=0.5;entryDx=0;entryDy=0;entryPerimeter=0;strokeColor=#000033;fontSize=11;fontColor=#FF3333;startArrow=none;startFill=0;" edge="1" parent="1" source="15" target="36">
                    <mxGeometry relative="1" as="geometry"/>
                </mxCell>
                <mxCell id="15" value="&lt;font style=&quot;font-size: 13px;&quot; color=&quot;#000033&quot; face=&quot;DM Sans, sans-serif&quot;&gt;REST Client&lt;/font&gt;" style="text;whiteSpace=wrap;html=1;strokeColor=#000033;align=center;verticalAlign=middle;rounded=1;" vertex="1" parent="1">
                    <mxGeometry x="180" y="680" width="90" height="40" as="geometry"/>
                </mxCell>
                <mxCell id="16" value="&lt;font face=&quot;DM Sans, sans-serif&quot;&gt;&lt;span style=&quot;color: rgb(255, 51, 51); font-size: 18.6667px;&quot;&gt;Control Plane&lt;/span&gt;&lt;br&gt;&lt;font color=&quot;#000033&quot; style=&quot;font-size: 16px;&quot;&gt;(Microsoft VNet)&lt;/font&gt;&lt;br&gt;&lt;/font&gt;" style="text;whiteSpace=wrap;html=1;strokeColor=#FF3333;fillColor=#FFFFFF;fillStyle=solid;align=center;strokeWidth=3;rounded=1;" vertex="1" parent="1">
                    <mxGeometry x="420" y="440" width="340" height="320" as="geometry"/>
                </mxCell>
                <mxCell id="17" value="&lt;font style=&quot;font-size: 13px;&quot; color=&quot;#000033&quot;&gt;Log Store&lt;/font&gt;" style="text;whiteSpace=wrap;html=1;strokeColor=#000033;align=center;verticalAlign=middle;fontColor=#001933;rounded=1;" vertex="1" parent="1">
                    <mxGeometry x="450" y="565" width="90" height="40" as="geometry"/>
                </mxCell>
                <mxCell id="18" value="&lt;font style=&quot;font-size: 13px;&quot; color=&quot;#000033&quot;&gt;Artifact Store&lt;/font&gt;" style="text;whiteSpace=wrap;html=1;strokeColor=#000033;align=center;verticalAlign=middle;fontColor=#001933;rounded=1;" vertex="1" parent="1">
                    <mxGeometry x="450" y="607.5" width="90" height="40" as="geometry"/>
                </mxCell>
                <mxCell id="19" value="&lt;font style=&quot;font-size: 13px;&quot; color=&quot;#000033&quot;&gt;Telemetry&lt;br&gt;(Event Hub)&lt;br&gt;&lt;/font&gt;" style="text;whiteSpace=wrap;html=1;strokeColor=#000033;align=center;verticalAlign=middle;fontColor=#001933;rounded=1;" vertex="1" parent="1">
                    <mxGeometry x="450" y="650" width="90" height="40" as="geometry"/>
                </mxCell>
                <mxCell id="20" value="&lt;font style=&quot;font-size: 13px;&quot; color=&quot;#000033&quot;&gt;System Table Store&lt;br&gt;&lt;/font&gt;" style="text;whiteSpace=wrap;html=1;strokeColor=#000033;align=center;verticalAlign=middle;fontColor=#001933;rounded=1;" vertex="1" parent="1">
                    <mxGeometry x="450" y="700" width="90" height="40" as="geometry"/>
                </mxCell>
                <mxCell id="21" value="&lt;font style=&quot;font-size: 13px;&quot; color=&quot;#000033&quot;&gt;Web App / REST API&lt;/font&gt;" style="text;whiteSpace=wrap;html=1;strokeColor=#000033;align=center;verticalAlign=middle;fontColor=#001933;rounded=1;" vertex="1" parent="1">
                    <mxGeometry x="600" y="520" width="90" height="40" as="geometry"/>
                </mxCell>
                <mxCell id="42" style="edgeStyle=orthogonalEdgeStyle;curved=1;html=1;exitX=0.5;exitY=1;exitDx=0;exitDy=0;entryX=0.844;entryY=0.04;entryDx=0;entryDy=0;entryPerimeter=0;strokeColor=#000033;fontSize=11;fontColor=#FF3333;startArrow=none;startFill=0;" edge="1" parent="1" source="75" target="25">
                    <mxGeometry relative="1" as="geometry">
                        <Array as="points">
                            <mxPoint x="723" y="770"/>
                            <mxPoint x="716" y="770"/>
                        </Array>
                    </mxGeometry>
                </mxCell>
                <mxCell id="22" value="&lt;font style=&quot;font-size: 13px;&quot; color=&quot;#000033&quot;&gt;Unity Metastore&lt;/font&gt;" style="text;whiteSpace=wrap;html=1;strokeColor=#000033;align=center;verticalAlign=middle;fontColor=#001933;rounded=1;" vertex="1" parent="1">
                    <mxGeometry x="610" y="647.5" width="90" height="40" as="geometry"/>
                </mxCell>
                <mxCell id="50" style="edgeStyle=orthogonalEdgeStyle;curved=1;html=1;exitX=0.5;exitY=1;exitDx=0;exitDy=0;entryX=0.5;entryY=0;entryDx=0;entryDy=0;entryPerimeter=0;strokeColor=#000033;fontSize=11;fontColor=#FF3333;startArrow=none;startFill=0;" edge="1" parent="1" source="71" target="47">
                    <mxGeometry relative="1" as="geometry"/>
                </mxCell>
                <mxCell id="23" value="&lt;font style=&quot;font-size: 13px;&quot; color=&quot;#000033&quot;&gt;Hive Metastore*&lt;/font&gt;" style="text;whiteSpace=wrap;html=1;strokeColor=#000033;align=center;verticalAlign=middle;fontColor=#001933;rounded=1;" vertex="1" parent="1">
                    <mxGeometry x="610" y="700" width="90" height="40" as="geometry"/>
                </mxCell>
                <mxCell id="24" value="&lt;font style=&quot;font-size: 13px;&quot; color=&quot;#000033&quot;&gt;Storage Account (DBFS)&lt;br&gt;&lt;/font&gt;" style="text;whiteSpace=wrap;html=1;strokeColor=#000033;align=center;verticalAlign=middle;fontColor=#001933;fillColor=#FFFFFF;strokeWidth=3;rounded=1;" vertex="1" parent="1">
                    <mxGeometry x="437" y="790" width="90" height="50" as="geometry"/>
                </mxCell>
                <mxCell id="25" value="&lt;font style=&quot;font-size: 13px;&quot; color=&quot;#000033&quot;&gt;Storage Account (data)&lt;br&gt;&lt;/font&gt;" style="text;whiteSpace=wrap;html=1;strokeColor=#000033;align=center;verticalAlign=middle;fontColor=#001933;fillColor=#FFFFFF;strokeWidth=3;rounded=1;" vertex="1" parent="1">
                    <mxGeometry x="640" y="790" width="90" height="50" as="geometry"/>
                </mxCell>
                <mxCell id="27" value="&lt;font style=&quot;font-size: 13px;&quot; color=&quot;#000033&quot;&gt;Databricks Clusters&lt;br&gt;&lt;/font&gt;" style="text;whiteSpace=wrap;html=1;strokeColor=#000033;align=center;verticalAlign=middle;fontColor=#001933;fillColor=#FFFFFF;rounded=1;" vertex="1" parent="1">
                    <mxGeometry x="610" y="880" width="90" height="50" as="geometry"/>
                </mxCell>
                <mxCell id="28" value="&lt;font style=&quot;font-size: 13px;&quot; color=&quot;#000033&quot;&gt;Databricks Clusters&lt;br&gt;&lt;/font&gt;" style="text;whiteSpace=wrap;html=1;strokeColor=#000033;align=center;verticalAlign=middle;fontColor=#001933;fillColor=#FFFFFF;rounded=1;" vertex="1" parent="1">
                    <mxGeometry x="600" y="870" width="90" height="50" as="geometry"/>
                </mxCell>
                <mxCell id="30" value="&lt;span style=&quot;background-color: rgb(255, 255, 255);&quot;&gt;AAD&lt;/span&gt;" style="aspect=fixed;html=1;points=[];align=center;image;fontSize=12;image=img/lib/azure2/identity/Azure_Active_Directory.svg;dashed=1;fillStyle=solid;strokeColor=#330000;fontColor=#000033;fillColor=#FFFFFF;imageBackground=none;" vertex="1" parent="1">
                    <mxGeometry x="342" y="459" width="40.47" height="37" as="geometry"/>
                </mxCell>
                <mxCell id="41" style="html=1;exitX=0.99;exitY=0.5;exitDx=0;exitDy=0;exitPerimeter=0;entryX=0;entryY=0.5;entryDx=0;entryDy=0;strokeColor=#000033;fontSize=11;fontColor=#FF3333;startArrow=none;startFill=0;" edge="1" parent="1" source="36" target="21">
                    <mxGeometry relative="1" as="geometry"/>
                </mxCell>
                <mxCell id="36" value="`" style="shape=mxgraph.signs.tech.at_1;html=1;pointerEvents=1;fillColor=#000000;strokeColor=none;verticalLabelPosition=bottom;verticalAlign=top;align=center;rounded=1;dashed=1;labelBackgroundColor=#FFFFFF;fillStyle=solid;strokeWidth=3;fontSize=11;fontColor=#FF3333;" vertex="1" parent="1">
                    <mxGeometry x="406" y="527.5" width="25" height="25" as="geometry"/>
                </mxCell>
                <mxCell id="51" style="edgeStyle=orthogonalEdgeStyle;curved=1;html=1;exitX=0.5;exitY=0;exitDx=0;exitDy=0;exitPerimeter=0;entryX=1;entryY=0.5;entryDx=0;entryDy=0;strokeColor=#000033;fontSize=11;fontColor=#FF3333;startArrow=none;startFill=0;" edge="1" parent="1" source="44" target="20">
                    <mxGeometry relative="1" as="geometry"/>
                </mxCell>
                <mxCell id="52" style="edgeStyle=orthogonalEdgeStyle;curved=1;html=1;exitX=0.5;exitY=0;exitDx=0;exitDy=0;exitPerimeter=0;entryX=1;entryY=0.5;entryDx=0;entryDy=0;strokeColor=#000033;fontSize=11;fontColor=#FF3333;startArrow=none;startFill=0;" edge="1" parent="1" source="44" target="19">
                    <mxGeometry relative="1" as="geometry"/>
                </mxCell>
                <mxCell id="53" style="edgeStyle=orthogonalEdgeStyle;curved=1;html=1;exitX=0.5;exitY=0;exitDx=0;exitDy=0;exitPerimeter=0;entryX=1;entryY=0.5;entryDx=0;entryDy=0;strokeColor=#000033;fontSize=11;fontColor=#FF3333;startArrow=none;startFill=0;" edge="1" parent="1" source="44" target="18">
                    <mxGeometry relative="1" as="geometry"/>
                </mxCell>
                <mxCell id="54" style="edgeStyle=orthogonalEdgeStyle;curved=1;html=1;exitX=0.5;exitY=0;exitDx=0;exitDy=0;exitPerimeter=0;entryX=1;entryY=0.25;entryDx=0;entryDy=0;strokeColor=#000033;fontSize=11;fontColor=#FF3333;startArrow=none;startFill=0;" edge="1" parent="1" source="44" target="17">
                    <mxGeometry relative="1" as="geometry"/>
                </mxCell>
                <mxCell id="55" style="edgeStyle=orthogonalEdgeStyle;curved=1;html=1;exitX=0.5;exitY=0;exitDx=0;exitDy=0;exitPerimeter=0;entryX=0;entryY=0.5;entryDx=0;entryDy=0;strokeColor=#000033;fontSize=11;fontColor=#FF3333;startArrow=none;startFill=0;" edge="1" parent="1" source="44" target="21">
                    <mxGeometry relative="1" as="geometry"/>
                </mxCell>
                <mxCell id="56" style="edgeStyle=orthogonalEdgeStyle;curved=1;html=1;exitX=0.5;exitY=0;exitDx=0;exitDy=0;exitPerimeter=0;entryX=0;entryY=0.5;entryDx=0;entryDy=0;strokeColor=#000033;fontSize=11;fontColor=#FF3333;startArrow=none;startFill=0;" edge="1" parent="1" source="44" target="22">
                    <mxGeometry relative="1" as="geometry"/>
                </mxCell>
                <mxCell id="57" style="edgeStyle=orthogonalEdgeStyle;curved=1;html=1;exitX=0.5;exitY=0;exitDx=0;exitDy=0;exitPerimeter=0;entryX=0;entryY=0.5;entryDx=0;entryDy=0;strokeColor=#000033;fontSize=11;fontColor=#FF3333;startArrow=none;startFill=0;" edge="1" parent="1" source="44" target="23">
                    <mxGeometry relative="1" as="geometry"/>
                </mxCell>
                <mxCell id="44" value="" style="shape=mxgraph.signs.tech.at_1;html=1;pointerEvents=1;fillColor=#000000;strokeColor=none;verticalLabelPosition=bottom;verticalAlign=top;align=center;rounded=1;dashed=1;labelBackgroundColor=#FFFFFF;fillStyle=solid;strokeWidth=3;fontSize=11;fontColor=#FF3333;" vertex="1" parent="1">
                    <mxGeometry x="563" y="745" width="25" height="25" as="geometry"/>
                </mxCell>
                <mxCell id="45" value="" style="shape=mxgraph.signs.tech.at_1;html=1;pointerEvents=1;fillColor=#000000;strokeColor=none;verticalLabelPosition=bottom;verticalAlign=top;align=center;rounded=1;dashed=1;labelBackgroundColor=#FFFFFF;fillStyle=solid;strokeWidth=3;fontSize=11;fontColor=#FF3333;" vertex="1" parent="1">
                    <mxGeometry x="512" y="810.5" width="22" height="20.5" as="geometry"/>
                </mxCell>
                <mxCell id="46" value="" style="shape=mxgraph.signs.tech.at_1;html=1;pointerEvents=1;fillColor=#000000;strokeColor=none;verticalLabelPosition=bottom;verticalAlign=top;align=center;rounded=1;dashed=1;labelBackgroundColor=#FFFFFF;fillStyle=solid;strokeWidth=3;fontSize=11;fontColor=#FF3333;" vertex="1" parent="1">
                    <mxGeometry x="720" y="802.5" width="19" height="19.5" as="geometry"/>
                </mxCell>
                <mxCell id="47" value="" style="shape=mxgraph.signs.tech.at_1;html=1;pointerEvents=1;fillColor=#000000;strokeColor=none;verticalLabelPosition=bottom;verticalAlign=top;align=center;rounded=1;dashed=1;labelBackgroundColor=#FFFFFF;fillStyle=solid;strokeWidth=3;fontSize=11;fontColor=#FF3333;" vertex="1" parent="1">
                    <mxGeometry x="619" y="835" width="25" height="25" as="geometry"/>
                </mxCell>
                <mxCell id="60" value="&lt;b id=&quot;docs-internal-guid-6aa26d23-7fff-3ce8-ccf2-91b5ecf91f61&quot; style=&quot;font-weight:normal;&quot;&gt;&lt;p style=&quot;line-height:1.38;margin-top:0pt;margin-bottom:0pt;&quot; dir=&quot;ltr&quot;&gt;&lt;span style=&quot;background-color: transparent; color: rgb(27, 81, 98); font-family: &amp;quot;DM Sans&amp;quot;, sans-serif; font-size: 10pt;&quot;&gt;&amp;nbsp;* Legacy, for migrations only&lt;/span&gt;&lt;/p&gt;&lt;p style=&quot;line-height:1.38;margin-top:0pt;margin-bottom:0pt;&quot; dir=&quot;ltr&quot;&gt;&lt;span style=&quot;background-color: transparent; color: rgb(27, 81, 98); font-family: &amp;quot;DM Sans&amp;quot;, sans-serif; font-size: 10pt;&quot;&gt;** With Managed Identities, no public IP is used&amp;nbsp;&lt;/span&gt;&lt;/p&gt;&lt;/b&gt;" style="text;whiteSpace=wrap;html=1;fontSize=16;fontColor=#000033;" vertex="1" parent="1">
                    <mxGeometry x="37" y="1081" width="383" height="55" as="geometry"/>
                </mxCell>
                <mxCell id="61" value="&lt;b id=&quot;docs-internal-guid-6aa26d23-7fff-3ce8-ccf2-91b5ecf91f61&quot; style=&quot;font-weight:normal;&quot;&gt;&lt;p style=&quot;line-height:1.38;margin-top:0pt;margin-bottom:0pt;&quot; dir=&quot;ltr&quot;&gt;&lt;span style=&quot;background-color: transparent; font-family: &amp;quot;DM Sans&amp;quot;, sans-serif; font-size: 14px;&quot;&gt;&lt;font color=&quot;#006600&quot;&gt;&amp;nbsp;&lt;/font&gt;&lt;/span&gt;&lt;span style=&quot;background-color: transparent; color: rgb(67, 67, 67); font-family: &amp;quot;DM Sans&amp;quot;, sans-serif; font-size: 10pt;&quot;&gt; = via Azure Backbone&lt;/span&gt;&lt;/p&gt;&lt;p style=&quot;line-height:1.38;margin-top:0pt;margin-bottom:0pt;&quot; dir=&quot;ltr&quot;&gt;&lt;span style=&quot;background-color: transparent; color: rgb(67, 67, 67); font-family: &amp;quot;DM Sans&amp;quot;, sans-serif; font-size: 10pt;&quot;&gt;@ = Public IP(s)&lt;/span&gt;&lt;/p&gt;&lt;/b&gt;" style="text;whiteSpace=wrap;html=1;fontSize=16;fontColor=#000033;" vertex="1" parent="1">
                    <mxGeometry x="363" y="1081" width="383" height="55" as="geometry"/>
                </mxCell>
                <mxCell id="62" value="" style="shape=ellipse;fillColor=#006600;strokeColor=none;html=1;sketch=0;rounded=1;dashed=1;labelBackgroundColor=#FFFFFF;fillStyle=solid;strokeWidth=3;fontSize=24;fontColor=#006600;" vertex="1" parent="1">
                    <mxGeometry x="361" y="1096" width="10" height="10" as="geometry"/>
                </mxCell>
                <mxCell id="66" value="" style="edgeStyle=orthogonalEdgeStyle;curved=1;html=1;exitX=0;exitY=0.25;exitDx=0;exitDy=0;strokeColor=#000033;fontSize=11;fontColor=#FF3333;startArrow=none;startFill=0;endArrow=none;" edge="1" parent="1" source="29">
                    <mxGeometry relative="1" as="geometry">
                        <mxPoint x="590" y="882.5" as="sourcePoint"/>
                        <mxPoint x="561" y="839" as="targetPoint"/>
                    </mxGeometry>
                </mxCell>
                <mxCell id="82" style="edgeStyle=orthogonalEdgeStyle;curved=1;html=1;exitX=0.5;exitY=0;exitDx=0;exitDy=0;entryX=0.99;entryY=0.5;entryDx=0;entryDy=0;entryPerimeter=0;strokeColor=#000033;fontSize=24;fontColor=#006600;startArrow=none;startFill=0;" edge="1" parent="1" source="64" target="45">
                    <mxGeometry relative="1" as="geometry"/>
                </mxCell>
                <mxCell id="64" value="" style="shape=ellipse;fillColor=#006600;strokeColor=none;html=1;sketch=0;rounded=1;dashed=1;labelBackgroundColor=#FFFFFF;fillStyle=solid;strokeWidth=3;fontSize=24;fontColor=#006600;" vertex="1" parent="1">
                    <mxGeometry x="556" y="835" width="10" height="10" as="geometry"/>
                </mxCell>
                <mxCell id="69" value="" style="edgeStyle=orthogonalEdgeStyle;curved=1;html=1;entryX=0.5;entryY=0;entryDx=0;entryDy=0;strokeColor=#000033;fontSize=11;fontColor=#FF3333;startArrow=none;startFill=0;endArrow=none;exitX=0.396;exitY=0.997;exitDx=0;exitDy=0;exitPerimeter=0;" edge="1" parent="1" source="16" target="68">
                    <mxGeometry relative="1" as="geometry">
                        <mxPoint x="553" y="760" as="sourcePoint"/>
                        <mxPoint x="533.78" y="812.75" as="targetPoint"/>
                        <Array as="points"/>
                    </mxGeometry>
                </mxCell>
                <mxCell id="83" style="edgeStyle=orthogonalEdgeStyle;curved=1;html=1;exitX=0.5;exitY=1;exitDx=0;exitDy=0;entryX=0.983;entryY=0.165;entryDx=0;entryDy=0;entryPerimeter=0;strokeColor=#000033;fontSize=24;fontColor=#006600;startArrow=none;startFill=0;" edge="1" parent="1" source="68" target="24">
                    <mxGeometry relative="1" as="geometry">
                        <Array as="points">
                            <mxPoint x="551" y="798"/>
                        </Array>
                    </mxGeometry>
                </mxCell>
                <mxCell id="68" value="" style="shape=ellipse;fillColor=#006600;strokeColor=none;html=1;sketch=0;rounded=1;dashed=1;labelBackgroundColor=#FFFFFF;fillStyle=solid;strokeWidth=3;fontSize=24;fontColor=#006600;" vertex="1" parent="1">
                    <mxGeometry x="546" y="778" width="10" height="10" as="geometry"/>
                </mxCell>
                <mxCell id="70" value="" style="shape=ellipse;fillColor=#006600;strokeColor=none;html=1;sketch=0;rounded=1;dashed=1;labelBackgroundColor=#FFFFFF;fillStyle=solid;strokeWidth=3;fontSize=24;fontColor=#006600;" vertex="1" parent="1">
                    <mxGeometry x="570.5" y="812" width="10" height="10" as="geometry"/>
                </mxCell>
                <mxCell id="72" value="" style="edgeStyle=orthogonalEdgeStyle;curved=1;html=1;exitX=0.25;exitY=1;exitDx=0;exitDy=0;entryX=0.5;entryY=0;entryDx=0;entryDy=0;entryPerimeter=0;strokeColor=#000033;fontSize=11;fontColor=#FF3333;startArrow=none;startFill=0;endArrow=none;" edge="1" parent="1" source="23" target="71">
                    <mxGeometry relative="1" as="geometry">
                        <mxPoint x="632.5" y="740" as="sourcePoint"/>
                        <mxPoint x="631.5" y="835" as="targetPoint"/>
                    </mxGeometry>
                </mxCell>
                <mxCell id="71" value="" style="shape=ellipse;fillColor=#006600;strokeColor=none;html=1;sketch=0;rounded=1;dashed=1;labelBackgroundColor=#FFFFFF;fillStyle=solid;strokeWidth=3;fontSize=24;fontColor=#006600;" vertex="1" parent="1">
                    <mxGeometry x="626.5" y="778" width="10" height="10" as="geometry"/>
                </mxCell>
                <mxCell id="74" value="" style="edgeStyle=orthogonalEdgeStyle;curved=1;html=1;exitX=1;exitY=0.5;exitDx=0;exitDy=0;entryX=0.5;entryY=1;entryDx=0;entryDy=0;strokeColor=#000033;fontSize=11;fontColor=#FF3333;startArrow=none;startFill=0;endArrow=none;" edge="1" parent="1" source="29" target="73">
                    <mxGeometry relative="1" as="geometry">
                        <mxPoint x="720" y="905" as="sourcePoint"/>
                        <mxPoint x="738.81" y="812.25" as="targetPoint"/>
                    </mxGeometry>
                </mxCell>
                <mxCell id="73" value="" style="shape=ellipse;fillColor=#006600;strokeColor=none;html=1;sketch=0;rounded=1;dashed=1;labelBackgroundColor=#FFFFFF;fillStyle=solid;strokeWidth=3;fontSize=24;fontColor=#006600;" vertex="1" parent="1">
                    <mxGeometry x="754" y="838" width="10" height="10" as="geometry"/>
                </mxCell>
                <mxCell id="76" value="" style="edgeStyle=orthogonalEdgeStyle;curved=1;html=1;exitX=1;exitY=0.5;exitDx=0;exitDy=0;entryX=0.5;entryY=0;entryDx=0;entryDy=0;strokeColor=#000033;fontSize=11;fontColor=#FF3333;startArrow=none;startFill=0;endArrow=none;" edge="1" parent="1" source="22" target="75">
                    <mxGeometry relative="1" as="geometry">
                        <mxPoint x="700" y="667.5" as="sourcePoint"/>
                        <mxPoint x="715.96" y="792" as="targetPoint"/>
                    </mxGeometry>
                </mxCell>
                <mxCell id="75" value="" style="shape=ellipse;fillColor=#006600;strokeColor=none;html=1;sketch=0;rounded=1;dashed=1;labelBackgroundColor=#FFFFFF;fillStyle=solid;strokeWidth=3;fontSize=24;fontColor=#006600;" vertex="1" parent="1">
                    <mxGeometry x="718" y="731" width="10" height="10" as="geometry"/>
                </mxCell>
                <mxCell id="85" value="&lt;font style=&quot;font-size: 13px;&quot; color=&quot;#000033&quot;&gt;**&lt;br&gt;&lt;/font&gt;" style="text;whiteSpace=wrap;html=1;strokeColor=none;align=center;verticalAlign=middle;fontColor=#001933;fillColor=#FFFFFF;rounded=1;" vertex="1" parent="1">
                    <mxGeometry x="723" y="760" width="18" height="23" as="geometry"/>
                </mxCell>
                <mxCell id="86" value="&lt;font style=&quot;font-size: 13px;&quot; color=&quot;#000033&quot;&gt;**&lt;br&gt;&lt;/font&gt;" style="text;whiteSpace=wrap;html=1;strokeColor=none;align=center;verticalAlign=middle;fontColor=#001933;fillColor=#FFFFFF;rounded=1;" vertex="1" parent="1">
                    <mxGeometry x="532" y="769" width="18" height="7" as="geometry"/>
                </mxCell>
            </root>
        </mxGraphModel>
    </diagram>
</mxfile>